<?xml version="1.0" standalone="no"?>
<!DOCTYPE svg PUBLIC "-//W3C//DTD SVG 20010904//EN"
 "http://www.w3.org/TR/2001/REC-SVG-20010904/DTD/svg10.dtd">
<svg version="1.0" xmlns="http://www.w3.org/2000/svg"
 width="512.000000pt" height="512.000000pt" viewBox="0 0 512.000000 512.000000"
 preserveAspectRatio="xMidYMid meet">

<g transform="translate(0.000000,512.000000) scale(0.100000,-0.100000)"
fill="#000000" stroke="none">
<path d="M803 4899 c-39 -25 -73 -92 -73 -145 0 -108 98 -337 258 -601 100
-165 110 -197 69 -236 -13 -12 -64 -50 -114 -85 -492 -341 -908 -1120 -940
-1758 -18 -360 108 -694 357 -944 267 -269 620 -421 1068 -461 72 -6 168 -9
212 -7 75 3 84 6 106 31 31 36 31 71 -1 102 -22 23 -32 25 -117 25 -639 1
-1137 257 -1353 695 -89 181 -122 349 -112 555 31 574 388 1268 824 1597 149
113 104 103 476 103 330 0 367 4 393 38 21 28 17 76 -9 100 -23 22 -29 22
-315 22 l-292 0 0 53 c0 61 -10 83 -119 261 -124 201 -231 432 -231 498 0 15
8 18 51 18 75 0 179 -18 329 -57 232 -60 433 -58 704 8 124 31 301 57 311 47
18 -18 -89 -267 -201 -469 l-66 -119 -319 0 -320 0 -24 -25 c-30 -29 -32 -74
-6 -106 l19 -24 291 -3 291 -3 0 -42 c0 -53 38 -135 77 -167 17 -14 73 -54
124 -90 122 -84 352 -314 441 -440 37 -52 90 -137 119 -188 28 -51 60 -97 70
-102 52 -29 119 8 119 65 0 40 -103 218 -204 352 -102 138 -281 317 -416 416
-58 43 -120 89 -137 103 -53 40 -46 70 49 236 150 261 240 471 254 591 8 68
-19 132 -67 161 -28 17 -45 18 -143 13 -61 -4 -160 -18 -221 -32 -258 -60
-255 -60 -425 -59 -155 0 -172 2 -285 33 -235 64 -439 81 -502 40z"/>
<path d="M3880 3529 c-476 -20 -826 -138 -901 -304 -17 -36 -19 -72 -19 -385
0 -393 0 -391 83 -467 102 -94 314 -165 612 -205 134 -18 635 -18 770 0 203
27 361 69 518 137 15 6 17 1 17 -47 0 -64 -13 -80 -105 -126 -179 -89 -451
-132 -829 -133 -120 0 -226 -4 -236 -9 -28 -15 -45 -66 -32 -95 24 -53 43 -56
279 -56 364 0 661 46 852 132 35 16 65 29 67 29 2 0 4 -24 4 -54 0 -49 -3 -57
-32 -82 -108 -90 -391 -157 -748 -175 -113 -6 -215 -15 -228 -20 -52 -21 -53
-93 0 -132 26 -20 33 -20 235 -8 332 18 570 64 715 137 26 13 50 24 53 24 3 0
5 -24 5 -53 0 -65 -23 -92 -120 -135 -156 -71 -383 -112 -694 -128 -128 -6
-142 -9 -163 -30 -32 -32 -29 -69 6 -105 34 -34 40 -34 261 -19 269 19 461 57
625 123 l85 34 0 -58 c0 -54 -2 -59 -37 -88 -110 -91 -420 -159 -793 -176
-160 -7 -184 -15 -195 -65 -8 -38 14 -76 53 -91 33 -13 356 4 506 27 305 45
521 137 591 249 l30 48 3 976 c3 1102 8 1024 -77 1104 -74 69 -247 147 -327
147 -63 0 -98 -85 -51 -127 12 -12 51 -31 87 -43 87 -29 179 -79 197 -106 19
-30 5 -56 -50 -88 -155 -91 -421 -144 -767 -153 -400 -11 -760 46 -938 148
-65 37 -83 70 -56 101 50 56 263 129 475 163 147 24 559 32 732 14 73 -8 141
-13 152 -11 27 3 65 48 65 77 0 13 -10 35 -22 49 -28 32 -98 43 -303 51 -77 3
-153 7 -170 8 -16 2 -100 0 -185 -4z m-585 -664 c432 -141 1244 -121 1591 40
l74 34 0 -55 c0 -44 -5 -59 -24 -79 -74 -74 -329 -148 -605 -175 -133 -13
-449 -13 -582 0 -276 27 -531 101 -605 175 -20 20 -24 35 -24 80 l0 55 50 -25
c27 -14 83 -36 125 -50z m-110 -270 c216 -96 544 -142 944 -132 360 9 582 50
819 154 10 4 12 -8 10 -53 -3 -58 -4 -60 -50 -90 -88 -59 -242 -107 -453 -141
-158 -26 -672 -26 -830 0 -211 34 -365 82 -453 141 -46 30 -47 32 -50 89 -2
31 -1 57 1 57 3 0 30 -11 62 -25z"/>
<path d="M2740 2294 c-14 -2 -56 -9 -95 -15 -124 -20 -312 -95 -355 -141 -27
-30 -26 -73 5 -103 33 -34 60 -31 157 15 135 65 220 83 383 83 170 0 251 -19
400 -92 177 -87 306 -216 395 -396 71 -142 92 -230 93 -390 1 -103 -3 -148
-21 -218 -84 -335 -349 -592 -683 -662 -103 -22 -285 -19 -388 5 -258 62 -473
235 -595 477 -100 200 -117 452 -45 668 38 115 83 194 170 302 71 89 82 120
55 155 -19 25 -62 39 -88 29 -68 -27 -206 -219 -268 -374 -210 -525 43 -1135
563 -1354 152 -64 223 -77 412 -78 154 0 179 3 267 27 367 102 637 369 743
733 45 158 49 361 10 530 -75 325 -329 613 -645 731 -49 19 -122 41 -162 49
-73 16 -261 27 -308 19z"/>
<path d="M2769 1931 c-28 -28 -29 -33 -29 -120 l0 -91 -34 0 c-92 0 -180 -61
-227 -156 -29 -58 -31 -71 -27 -131 8 -112 63 -193 163 -239 45 -21 64 -24
191 -24 130 0 144 -2 175 -23 18 -12 40 -34 47 -47 20 -39 8 -98 -27 -134
l-31 -31 -138 -3 c-130 -3 -139 -2 -172 20 -25 17 -39 37 -49 68 -22 73 -35
94 -64 105 -35 12 -74 -8 -96 -47 -12 -21 -13 -34 -2 -82 26 -115 110 -196
229 -219 l60 -11 4 -94 c3 -84 5 -96 27 -113 32 -26 77 -24 106 6 23 22 25 32
25 113 l0 89 51 7 c98 13 174 67 220 156 18 35 24 61 24 120 0 66 -4 82 -31
130 -65 115 -147 150 -352 150 l-134 0 -34 34 c-29 29 -34 41 -34 81 0 40 5
52 34 81 l34 34 144 0 c114 0 148 -3 166 -16 27 -19 52 -65 52 -97 0 -42 36
-77 80 -77 139 0 79 251 -78 326 -20 10 -61 20 -89 22 l-53 4 0 88 c0 104 -4
116 -41 135 -40 21 -57 19 -90 -14z"/>
</g>
</svg>
