<?xml version="1.0" standalone="no"?>
<!DOCTYPE svg PUBLIC "-//W3C//DTD SVG 20010904//EN"
 "http://www.w3.org/TR/2001/REC-SVG-20010904/DTD/svg10.dtd">
<svg version="1.0" xmlns="http://www.w3.org/2000/svg"
 width="512.000000pt" height="512.000000pt" viewBox="0 0 512.000000 512.000000"
 preserveAspectRatio="xMidYMid meet">

<g transform="translate(0.000000,512.000000) scale(0.100000,-0.100000)"
fill="#000000" stroke="none">
<path d="M3226 4937 c-17 -17 -26 -46 -39 -127 -10 -58 -23 -133 -28 -168
l-11 -63 -55 -25 c-30 -13 -60 -21 -65 -18 -5 3 -68 48 -140 100 -98 70 -138
94 -161 94 -27 0 -57 -25 -224 -193 -164 -164 -193 -197 -193 -222 0 -22 27
-68 100 -170 55 -77 99 -142 97 -145 -1 -3 -11 -28 -22 -56 l-19 -52 -170 -28
c-142 -23 -174 -32 -193 -50 -23 -23 -23 -26 -23 -294 0 -329 -10 -307 150
-333 58 -10 133 -23 168 -28 l63 -11 25 -55 c13 -30 21 -60 17 -67 -4 -6 -49
-69 -100 -141 -68 -94 -93 -138 -93 -159 0 -26 28 -59 193 -223 167 -168 197
-193 224 -193 23 0 63 24 161 94 72 52 135 97 140 100 5 3 35 -5 65 -18 l55
-25 11 -63 c5 -35 18 -110 28 -168 26 -160 4 -150 333 -150 329 0 307 -10 333
150 10 58 23 133 28 168 l11 63 55 25 c30 13 60 21 67 17 6 -4 69 -49 141
-100 94 -68 138 -93 159 -93 26 0 59 28 223 193 165 164 193 197 193 223 0 21
-25 65 -93 159 -51 72 -96 135 -100 141 -4 7 4 37 17 67 l25 55 63 11 c35 5
110 18 168 28 160 26 150 4 150 333 0 329 10 307 -150 333 -58 10 -133 23
-168 28 l-63 11 -25 55 c-13 30 -21 60 -17 67 4 6 49 69 100 141 68 94 93 138
93 159 0 26 -28 59 -193 223 -164 165 -197 193 -223 193 -21 0 -65 -25 -159
-93 -72 -51 -135 -96 -141 -100 -7 -4 -37 4 -67 17 l-55 25 -11 63 c-5 35 -18
110 -28 168 -26 160 -4 150 -333 150 -268 0 -271 0 -294 -23z m468 -154 c2
-10 15 -80 27 -156 25 -155 36 -177 98 -196 23 -6 70 -25 107 -41 36 -17 77
-30 91 -30 15 0 70 33 144 85 65 47 126 88 135 92 11 4 50 -28 130 -108 63
-62 114 -119 114 -125 0 -6 -40 -68 -90 -137 -55 -77 -90 -135 -90 -150 0 -14
13 -55 30 -91 16 -37 35 -84 41 -107 19 -62 41 -73 196 -98 76 -12 146 -25
156 -27 15 -5 17 -22 17 -174 0 -152 -2 -169 -17 -174 -10 -2 -80 -15 -156
-27 -155 -25 -177 -36 -196 -98 -6 -23 -25 -70 -41 -107 -17 -36 -30 -77 -30
-91 0 -15 33 -70 85 -143 47 -65 88 -126 91 -135 5 -12 -24 -47 -107 -131 -62
-63 -119 -114 -125 -114 -6 0 -68 40 -137 90 -77 55 -135 90 -150 90 -14 0
-55 -13 -91 -30 -37 -16 -84 -35 -107 -41 -62 -19 -73 -41 -98 -196 -12 -76
-25 -146 -27 -155 -5 -16 -22 -18 -174 -18 -152 0 -169 2 -174 18 -2 9 -15 79
-27 155 -25 155 -36 177 -98 196 -23 6 -70 25 -107 41 -36 17 -77 30 -91 30
-15 0 -73 -35 -150 -90 -69 -49 -131 -90 -137 -90 -6 0 -63 51 -125 114 -83
84 -112 119 -107 131 3 9 44 70 91 135 52 73 85 128 85 143 0 14 -13 55 -30
91 -16 37 -35 84 -41 107 -19 62 -41 73 -196 98 -76 12 -146 25 -155 27 -16 5
-18 22 -18 174 0 152 2 169 18 174 9 2 79 15 155 27 83 13 146 29 158 38 21
18 99 200 106 248 4 27 -7 48 -81 152 -47 65 -89 127 -92 136 -5 12 24 47 107
131 62 63 119 114 125 114 6 0 68 -40 137 -90 77 -55 135 -90 150 -90 14 0 55
13 91 30 37 16 84 35 107 41 62 19 73 41 98 196 12 76 25 146 27 156 5 15 22
17 174 17 152 0 169 -2 174 -17z"/>
<path d="M3380 4226 c-155 -34 -256 -89 -370 -205 -67 -67 -95 -105 -128 -171
-62 -125 -77 -192 -76 -340 1 -107 5 -137 27 -205 38 -115 90 -199 182 -290
93 -93 160 -135 282 -178 80 -28 100 -31 213 -31 148 -1 216 14 338 76 251
125 409 405 389 689 -13 177 -81 323 -212 454 -139 139 -283 203 -475 210 -67
3 -128 -1 -170 -9z m321 -178 c149 -55 254 -147 319 -282 151 -314 -3 -668
-340 -782 -81 -28 -254 -25 -334 4 -179 65 -301 191 -362 372 -14 40 -19 84
-19 160 0 158 50 282 156 390 80 81 180 136 294 161 70 15 213 3 286 -23z"/>
<path d="M1583 3560 l-312 -118 -285 41 c-396 56 -380 72 -282 -293 l66 -248
-53 -54 c-56 -56 -77 -104 -77 -174 0 -45 37 -130 68 -158 l22 -19 -58 -62
c-226 -241 -410 -597 -484 -935 -21 -97 -23 -129 -23 -415 1 -310 1 -310 28
-398 82 -266 255 -453 497 -538 64 -23 74 -23 555 -27 429 -3 498 -1 565 14
263 58 467 260 557 551 27 88 27 88 28 398 0 286 -2 318 -23 415 -74 338 -258
694 -484 935 l-58 62 22 19 c31 28 68 113 68 158 0 69 -21 118 -76 173 l-52
52 104 323 c57 178 104 333 104 346 0 32 -43 72 -77 71 -15 0 -168 -54 -340
-119z m207 -102 c0 -2 -36 -113 -79 -248 l-78 -245 -351 -3 c-194 -1 -352 0
-352 2 0 3 -22 87 -50 187 -27 101 -47 185 -45 187 2 2 106 -10 232 -28 l228
-32 235 90 c209 81 260 98 260 90z m-55 -683 c16 -15 25 -36 25 -55 0 -19 -9
-40 -25 -55 l-24 -25 -431 0 -431 0 -24 25 c-16 15 -25 36 -25 55 0 19 9 40
25 55 l24 25 431 0 431 0 24 -25z m22 -399 c216 -224 391 -558 460 -876 15
-71 18 -132 18 -375 0 -289 0 -290 -27 -370 -72 -211 -235 -375 -416 -420 -58
-14 -130 -15 -537 -13 -459 3 -471 4 -530 25 -171 65 -307 214 -373 408 -27
80 -27 81 -27 370 0 243 3 304 18 375 69 318 244 652 460 876 l100 104 377 0
377 0 100 -104z"/>
<path d="M1200 2241 l0 -79 -55 -7 c-75 -9 -183 -65 -235 -121 -23 -25 -56
-75 -73 -112 -29 -61 -32 -76 -32 -163 0 -90 2 -99 37 -171 45 -91 104 -148
196 -191 64 -30 74 -31 227 -37 183 -6 212 -15 274 -86 58 -66 74 -142 49
-228 -16 -55 -99 -138 -154 -154 -28 -8 -126 -12 -298 -12 l-256 0 0 -80 0
-80 160 0 160 0 0 -80 0 -80 80 0 80 0 0 79 0 79 55 7 c75 9 183 65 235 121
23 25 56 75 73 112 29 61 32 76 32 163 0 90 -2 99 -37 171 -45 91 -104 148
-196 191 -64 30 -74 31 -227 37 -183 6 -212 15 -274 86 -58 66 -74 142 -49
228 16 55 99 138 154 154 28 8 126 12 298 12 l256 0 0 80 0 80 -160 0 -160 0
0 80 0 80 -80 0 -80 0 0 -79z"/>
<path d="M4400 1440 l0 -720 -800 0 -800 0 0 -80 0 -80 855 0 856 0 24 25 25
24 0 776 0 775 -80 0 -80 0 0 -720z"/>
<path d="M3440 1720 l0 -200 -280 0 -280 0 0 -80 0 -80 335 0 336 0 24 25 25
24 0 256 0 255 -80 0 -80 0 0 -200z"/>
<path d="M2480 640 l0 -80 80 0 80 0 0 80 0 80 -80 0 -80 0 0 -80z"/>
</g>
</svg>
