<?xml version="1.0" standalone="no"?>
<!DOCTYPE svg PUBLIC "-//W3C//DTD SVG 20010904//EN"
 "http://www.w3.org/TR/2001/REC-SVG-20010904/DTD/svg10.dtd">
<svg version="1.0" xmlns="http://www.w3.org/2000/svg"
 width="512.000000pt" height="512.000000pt" viewBox="0 0 512.000000 512.000000"
 preserveAspectRatio="xMidYMid meet">

<g transform="translate(0.000000,512.000000) scale(0.100000,-0.100000)"
fill="#000000" stroke="none">
<path d="M2159 4773 l-34 -187 -209 -68 -209 -67 -134 127 c-74 70 -140 127
-147 126 -12 -1 -535 -372 -569 -404 -18 -16 -15 -23 62 -178 45 -89 81 -166
81 -172 0 -16 -241 -341 -257 -347 -8 -3 -93 5 -189 17 -107 15 -178 20 -183
14 -10 -10 -221 -652 -221 -671 0 -7 74 -51 165 -99 l165 -87 0 -217 0 -217
-165 -87 c-91 -48 -165 -92 -165 -99 0 -19 211 -661 221 -671 5 -6 76 -1 183
14 96 12 181 20 189 17 16 -6 257 -331 257 -347 0 -6 -36 -83 -81 -172 -77
-155 -80 -162 -62 -178 34 -32 557 -403 569 -404 7 -1 73 56 147 126 l134 127
209 -67 209 -68 34 -187 35 -187 366 0 366 0 35 187 34 187 209 67 209 68 135
-127 c74 -70 140 -126 147 -126 12 1 534 372 568 404 18 16 16 23 -62 178 -45
89 -81 166 -81 172 0 16 241 341 258 347 8 4 93 -4 189 -17 103 -14 177 -19
183 -14 14 15 222 664 217 677 -3 7 -78 50 -166 96 l-161 85 0 216 0 216 161
85 c88 46 163 89 166 96 5 13 -203 662 -217 677 -6 5 -80 0 -183 -14 -96 -13
-181 -21 -189 -17 -17 6 -258 331 -258 347 0 6 36 83 81 172 78 155 80 162 62
178 -35 33 -555 403 -568 404 -7 0 -73 -56 -147 -126 l-135 -127 -209 68 -209
67 -34 187 -35 187 -366 0 -366 0 -35 -187z m665 -144 l29 -166 300 -96 300
-96 114 107 c63 59 120 111 128 116 9 7 65 -28 198 -123 l185 -132 -48 -104
c-27 -57 -61 -127 -75 -155 l-26 -51 187 -254 c158 -216 190 -254 208 -250 11
2 75 11 141 20 66 8 132 18 146 21 27 5 27 4 98 -208 39 -117 71 -216 71 -220
0 -4 -67 -42 -150 -85 l-150 -78 0 -315 0 -315 150 -78 c83 -43 150 -81 150
-85 0 -4 -32 -103 -71 -220 -71 -212 -71 -213 -98 -208 -14 3 -80 13 -146 21
-66 9 -130 18 -141 20 -18 4 -50 -34 -208 -250 l-187 -254 26 -51 c14 -28 48
-98 75 -155 l48 -104 -185 -132 c-133 -95 -189 -130 -198 -123 -8 5 -65 57
-128 116 l-114 107 -300 -96 -300 -96 -29 -166 -30 -166 -234 0 -234 0 -30
166 -29 166 -300 97 -299 96 -123 -115 c-68 -63 -126 -115 -130 -115 -5 0 -90
59 -190 131 l-183 131 49 103 c26 57 60 127 74 155 l26 51 -187 254 c-158 216
-190 254 -208 250 -11 -3 -75 -12 -141 -20 -66 -9 -132 -18 -146 -21 -27 -5
-27 -4 -98 208 -39 117 -71 216 -71 220 0 4 67 42 150 85 l150 78 0 315 0 315
-150 78 c-83 43 -150 81 -150 85 0 4 32 103 71 220 71 212 71 213 98 208 14
-3 80 -12 146 -21 66 -8 130 -17 141 -20 18 -4 50 34 208 250 l187 254 -26 51
c-14 28 -48 98 -74 155 l-49 103 183 131 c100 72 185 131 190 131 4 0 62 -52
130 -115 l123 -115 299 96 300 97 27 156 c15 86 29 162 31 169 4 10 56 12 237
10 l232 -3 30 -166z"/>
<path d="M2410 4233 c-596 -62 -1092 -402 -1355 -931 -375 -752 -127 -1673
575 -2139 437 -290 978 -360 1473 -192 457 155 828 507 1015 965 83 203 116
382 116 624 0 242 -33 421 -116 624 -240 585 -756 976 -1383 1046 -85 9 -249
11 -325 3z m460 -186 c276 -58 522 -187 726 -380 246 -233 394 -504 461 -842
24 -125 24 -405 0 -530 -67 -338 -215 -609 -461 -842 -212 -201 -476 -334
-771 -389 -135 -25 -402 -26 -530 -1 -328 64 -603 212 -826 443 -215 223 -344
476 -406 789 -25 128 -24 395 1 530 117 629 606 1119 1226 1229 131 24 145 24
310 21 114 -3 185 -11 270 -28z"/>
<path d="M2460 3792 c-95 -48 -839 -488 -863 -511 -16 -14 -39 -44 -50 -66
-22 -40 -22 -44 -22 -655 0 -611 0 -615 22 -655 11 -22 34 -52 50 -66 26 -25
780 -470 865 -511 57 -28 147 -24 211 8 111 57 824 477 850 502 16 15 39 45
50 67 22 40 22 44 22 655 0 611 0 615 -22 655 -11 22 -34 52 -50 67 -26 24
-814 488 -876 516 -41 18 -145 14 -187 -6z m508 -362 c207 -121 377 -225 377
-230 0 -5 -170 -109 -377 -230 -259 -150 -387 -220 -407 -220 -23 0 -171 73
-171 85 0 1 81 51 180 110 99 59 183 111 185 115 5 9 -421 263 -440 263 -6 0
-95 -50 -197 -111 l-186 -112 -81 47 c-45 26 -81 50 -81 53 0 3 170 105 378
227 273 160 386 222 410 222 25 1 118 -49 410 -219z m-583 -327 c35 -20 62
-40 60 -44 -6 -8 -209 -129 -217 -129 -4 0 -37 17 -73 39 l-67 38 108 66 c60
37 113 66 117 67 4 0 37 -17 72 -37z m-577 -115 c22 -11 22 -13 22 -223 l0
-211 240 -141 240 -141 0 210 0 210 58 -33 c31 -18 69 -39 85 -46 l27 -14 0
-550 c0 -458 -2 -549 -13 -542 -8 4 -183 107 -390 227 -257 151 -379 227 -386
243 -7 16 -11 199 -11 554 l0 529 53 -30 c28 -17 62 -36 75 -42z m1622 -1009
c-8 -19 -99 -77 -378 -239 -202 -118 -377 -220 -389 -228 l-23 -14 0 551 0
551 23 9 c12 5 191 108 397 229 l375 220 3 -527 c1 -353 -1 -534 -8 -552z
m-1351 850 l71 -42 0 -118 0 -119 -77 48 -78 48 -3 112 c-1 62 1 112 6 112 5
0 41 -19 81 -41z"/>
</g>
</svg>
