<?xml version="1.0" standalone="no"?>
<!DOCTYPE svg PUBLIC "-//W3C//DTD SVG 20010904//EN"
 "http://www.w3.org/TR/2001/REC-SVG-20010904/DTD/svg10.dtd">
<svg version="1.0" xmlns="http://www.w3.org/2000/svg"
 width="512.000000pt" height="512.000000pt" viewBox="0 0 512.000000 512.000000"
 preserveAspectRatio="xMidYMid meet">

<g transform="translate(0.000000,512.000000) scale(0.100000,-0.100000)"
fill="#000000" stroke="none">
<path d="M2438 5104 c-225 -54 -398 -264 -398 -483 l0 -66 -472 -273 -471
-272 -41 24 c-139 81 -345 87 -490 14 -150 -75 -259 -225 -286 -394 -33 -202
73 -425 248 -525 l42 -24 0 -545 0 -545 -42 -24 c-175 -100 -281 -323 -248
-525 42 -260 258 -446 517 -446 84 0 169 21 245 60 l56 29 471 -272 471 -271
0 -67 c0 -264 244 -499 520 -499 275 0 520 235 520 499 l0 66 471 272 470 272
58 -29 c267 -136 580 -34 711 233 65 134 74 255 29 394 -37 114 -128 228 -227
284 l-42 24 0 545 0 545 42 24 c175 100 281 323 248 525 -34 211 -184 378
-387 430 -124 32 -253 17 -375 -44 l-57 -29 -470 272 -471 272 0 66 c0 314
-327 560 -642 483z m233 -154 c160 -50 259 -186 259 -355 0 -169 -99 -305
-259 -355 -80 -25 -142 -25 -222 0 -115 36 -197 114 -240 229 -30 80 -24 214
14 287 50 99 124 162 226 195 74 24 145 23 222 -1z m-566 -615 c19 -32 35 -60
35 -64 0 -7 -826 -484 -846 -489 -8 -2 -18 7 -23 20 -5 13 -21 40 -35 61 l-26
38 43 25 c137 82 812 470 815 469 1 -1 18 -28 37 -60z m1553 -287 c133 -77
242 -144 242 -148 0 -18 -66 -120 -76 -117 -18 4 -844 481 -844 488 0 3 16 33
36 67 l36 60 181 -105 c100 -58 291 -168 425 -245z m-1338 82 c155 -78 326
-78 481 0 l61 31 466 -269 467 -270 6 -79 c13 -171 91 -306 228 -397 l71 -48
0 -538 0 -538 -71 -48 c-137 -91 -215 -226 -228 -397 l-6 -79 -467 -270 -466
-269 -61 31 c-156 78 -326 78 -482 0 l-60 -31 -277 160 c-152 88 -362 209
-467 270 l-190 110 -7 83 c-14 176 -106 323 -260 417 l-38 23 0 209 c0 196 -1
210 -20 229 -30 30 -83 27 -109 -6 -20 -25 -21 -40 -21 -208 l0 -181 -75 0
-75 0 0 495 0 495 75 0 75 0 0 -181 c0 -168 1 -183 21 -208 26 -33 79 -36 109
-6 19 19 20 33 20 229 l0 209 51 32 c143 88 234 238 247 408 l7 84 465 269
c256 148 466 269 468 269 1 0 29 -14 62 -30z m-1368 -212 c79 -36 142 -98 181
-177 30 -61 32 -73 32 -166 0 -93 -2 -104 -32 -161 -41 -78 -125 -155 -201
-185 -74 -29 -195 -31 -264 -3 -104 42 -180 118 -222 222 -28 69 -26 190 3
264 39 99 142 193 251 229 14 5 63 7 110 6 66 -2 97 -9 142 -29z m3534 -6 c78
-39 155 -123 185 -200 17 -42 23 -78 23 -139 0 -74 -4 -88 -37 -156 -44 -89
-94 -137 -185 -180 -57 -27 -77 -31 -147 -31 -59 0 -95 6 -138 23 -76 30 -167
114 -204 189 -25 51 -28 68 -28 157 0 87 3 107 26 156 47 99 128 171 232 205
26 9 74 13 127 11 72 -3 95 -8 146 -35z m-86 -1352 l0 -495 -75 0 -75 0 0 495
0 495 75 0 75 0 0 -495z m-3466 -671 c74 -27 163 -109 201 -186 27 -53 30 -67
30 -158 0 -88 -3 -107 -27 -157 -34 -74 -112 -152 -186 -186 -49 -23 -70 -27
-152 -27 -84 0 -102 3 -158 29 -43 20 -80 47 -116 87 -140 151 -136 369 9 514
108 108 253 139 399 84z m3454 21 c122 -23 212 -92 269 -206 33 -69 37 -83 37
-157 0 -61 -6 -97 -23 -140 -32 -81 -113 -166 -193 -203 -56 -26 -74 -29 -158
-29 -82 0 -103 4 -152 27 -79 37 -142 98 -181 177 -30 61 -32 73 -32 166 0 89
3 106 27 155 49 99 141 175 248 204 67 18 92 19 158 6z m-2664 -815 c228 -132
416 -243 416 -246 0 -3 -16 -33 -36 -67 l-36 -60 -51 30 c-28 16 -215 125
-416 240 -202 116 -371 215 -378 220 -8 7 -5 19 14 46 14 20 29 47 34 60 5 13
15 22 23 20 7 -2 201 -111 430 -243z m2123 228 c4 -10 17 -35 30 -55 13 -21
23 -42 23 -47 0 -5 -109 -72 -242 -149 -134 -77 -325 -187 -425 -245 l-181
-105 -36 60 c-20 34 -36 64 -36 67 0 8 832 489 848 490 7 1 16 -7 19 -16z
m-1176 -443 c160 -50 259 -186 259 -355 0 -169 -99 -305 -259 -355 -80 -25
-142 -25 -222 0 -115 36 -197 114 -240 229 -30 80 -24 214 14 287 50 99 124
162 226 195 74 24 145 23 222 -1z"/>
<path d="M1963 3588 c-408 -237 -574 -338 -582 -355 -15 -34 -15 -1312 0
-1346 8 -17 174 -118 585 -356 315 -182 583 -331 594 -331 12 0 272 145 578
322 661 381 588 337 601 365 15 33 15 1313 0 1346 -6 12 -18 28 -27 33 -180
112 -1137 654 -1154 653 -13 0 -280 -149 -595 -331z m1080 -108 c262 -151 473
-278 469 -282 -4 -3 -94 -57 -201 -118 l-193 -112 -227 131 c-548 315 -721
416 -724 423 -2 8 383 237 394 234 3 0 220 -125 482 -276z m-310 -463 c125
-73 227 -134 227 -137 0 -3 -90 -56 -200 -119 l-200 -114 -77 45 c-43 25 -260
150 -481 278 l-404 233 79 45 c43 25 134 78 202 117 l124 72 251 -145 c138
-79 353 -203 479 -275z m-732 -221 l474 -274 3 -557 2 -557 -32 19 c-18 11
-234 135 -480 277 l-448 259 0 553 c0 305 2 554 4 554 1 0 216 -123 477 -274z
m1599 -280 l0 -554 -472 -272 c-260 -150 -476 -275 -481 -277 -4 -2 -6 246 -5
552 l3 557 475 274 c261 151 476 274 477 274 2 0 3 -249 3 -554z"/>
<path d="M3083 2357 c-145 -84 -271 -160 -280 -170 -15 -15 -18 -41 -21 -179
-2 -89 -1 -181 3 -205 7 -49 37 -83 72 -83 30 0 540 292 571 326 21 24 22 32
22 220 0 194 0 195 -25 219 -14 15 -35 25 -52 25 -17 -1 -128 -59 -290 -153z
m217 -140 l0 -83 -137 -79 c-76 -43 -157 -90 -181 -103 l-43 -24 3 87 3 87
170 99 c94 54 173 99 178 99 4 0 7 -37 7 -83z"/>
</g>
</svg>
